# xmcd CD database file
#
# Track frame offsets:
#	150
#	51902
#	86854
#	114681
#	162758
#	195535
#	234987
#	248189
#
# Disc length: 3671 seconds
#
# Revision: 0
# Processed by: cddbd v1.5.2PL0 Copyright (c) Steve Scherf et al.
# Submitted via: CDex 1.70beta2
#
DISCID=650e5508
DTITLE=Leimgruber, Urs - Polyphyllum
DYEAR=1989
DGENRE=Jazz
TTITLE0=intermezzo
TTITLE1=eleven-one
TTITLE2=west 9th street
TTITLE3=leonor
TTITLE4=intergration
TTITLE5=falafel
TTITLE6=thurles
TTITLE7=far out
EXTD=YEAR: 1989
EXTT0=
EXTT1=
EXTT2=
EXTT3=
EXTT4=
EXTT5=
EXTT6=
EXTT7=
PLAYORDER=
